<?xml version="1.0" encoding="UTF-8" standalone="no"?> <svg width="64" height="64" viewBox="0 0 64 64" fill="none" xmlns="http://www.w3.org/2000/svg">
<path d="M45.3 22.71C45.2947 19.1815 43.8928 15.7985 41.4005 13.3007C38.9083 10.8028 35.5285 9.39322 32 9.38C14.29 10.12 14.29 35.32 32 36C35.5216 35.9868 38.8954 34.5827 41.3865 32.0935C43.8776 29.6043 45.2842 26.2316 45.3 22.71V22.71ZM41.71 17.34C45.58 18.08 43.29 24.6 39.83 24.12C36 23.38 38.27 16.85 41.71 17.34V17.34ZM33.26 15.12C34.72 10.19 39.43 12.23 38.11 17.12C36.65 22 31.94 20 33.26 15.12V15.12ZM27.12 12.47C30.79 11.05 32.24 18.6 29.5 19.74C27.74 20.47 26.41 18.92 25.89 17.08C25.34 15.06 25.87 13.08 27.12 12.47V12.47ZM21.56 23.09C18.56 20.09 21.19 15.09 24.85 18.36C27.87 21.35 25.2 26.38 21.56 23.09ZM24 29.36C24.4 19.09 39.56 19.09 40 29.36C40.15 34.35 24.08 34.6 24 29.36Z" fill="black"/>
<path d="M32 57.93C33.0009 57.9414 33.9877 57.6931 34.864 57.2094C35.7403 56.7256 36.4762 56.023 37 55.17C43.73 44.28 51.76 29.81 51.76 22.71C51.644 17.5581 49.5159 12.6563 45.8313 9.05376C42.1466 5.45117 37.1982 3.43402 32.045 3.43402C26.8918 3.43402 21.9434 5.45117 18.2587 9.05376C14.5741 12.6563 12.446 17.5581 12.33 22.71C12.33 29.81 20.33 44.28 27.09 55.17C27.6051 56.0106 28.3267 56.7054 29.1861 57.1885C30.0455 57.6716 31.0141 57.9269 32 57.93ZM16.64 22.71C16.6453 18.6406 18.2662 14.7399 21.1465 11.8653C24.0268 8.99063 27.9307 7.37732 32 7.37998C52.31 8.22998 52.31 37.21 32 38C27.9368 38.0053 24.0374 36.3983 21.1577 33.5318C18.278 30.6652 16.6532 26.7732 16.64 22.71V22.71Z" fill="black"/>
<path d="M44.12 45.66C43.9887 45.635 43.8537 45.6362 43.7229 45.6634C43.592 45.6906 43.4677 45.7433 43.3572 45.8185C43.2467 45.8937 43.1521 45.99 43.0788 46.1018C43.0055 46.2135 42.955 46.3387 42.93 46.47C42.9051 46.6013 42.9062 46.7363 42.9334 46.8671C42.9606 46.998 43.0133 47.1222 43.0885 47.2327C43.1638 47.3432 43.26 47.4378 43.3718 47.5111C43.4836 47.5845 43.6087 47.635 43.74 47.66C61.92 51.66 52.59 57.92 35.55 58.95C26.65 59.76 10.34 57.07 10.36 52.81C10.36 51.22 13.41 49.02 20.22 47.67C20.3518 47.644 20.4771 47.5917 20.5883 47.5162C20.6994 47.4407 20.7942 47.3436 20.8671 47.2307C20.9399 47.1177 20.9892 46.9913 21.012 46.8589C21.0348 46.7264 21.0308 46.5908 21 46.46C20.9749 46.3304 20.9244 46.207 20.8514 46.097C20.7783 45.987 20.6843 45.8926 20.5746 45.8192C20.4649 45.7457 20.3417 45.6947 20.2122 45.6691C20.0827 45.6435 19.9494 45.6438 19.82 45.67C12.53 47.11 8.35001 49.67 8.35001 52.77C9.02001 63.77 54.97 63.77 55.63 52.77C55.64 49.69 51.44 47.1 44.12 45.66Z" fill="black"/>
</svg>
